<?xml version="1.0" standalone="no"?>
<!DOCTYPE svg PUBLIC "-//W3C//DTD SVG 20010904//EN"
 "http://www.w3.org/TR/2001/REC-SVG-20010904/DTD/svg10.dtd">
<svg version="1.0" xmlns="http://www.w3.org/2000/svg"
 width="700.000000pt" height="700.000000pt" viewBox="0 0 700.000000 700.000000"
 preserveAspectRatio="xMidYMid meet">
<metadata>
Created by potrace 1.14, written by Peter Selinger 2001-2017
</metadata>
<g transform="translate(0.000000,700.000000) scale(0.100000,-0.100000)"
fill="#000000" stroke="none">
<path d="M1449 6996 c-2 -2 -31 -7 -64 -11 -594 -66 -1113 -468 -1182 -915 -4
-30 -8 -1256 -8 -2725 l0 -2670 22 -83 c76 -283 279 -488 564 -569 61 -17 166
-18 2334 -18 l2270 0 75 23 c216 68 386 207 481 393 11 22 28 43 37 46 39 14
152 94 198 139 79 79 112 124 153 209 69 144 81 195 86 360 2 54 7 101 13 103
24 8 121 87 166 135 96 104 151 204 188 347 l22 85 0 2090 c0 1150 -3 2119 -7
2155 -29 284 -198 571 -427 726 -110 75 -211 119 -359 157 l-86 22 -2236 2
c-1230 2 -2238 1 -2240 -1z"/>
</g>
</svg>
